<svg width="200" height="200" xmlns="http://www.w3.org/2000/svg">
  <defs>
    <pattern id="grid" width="20" height="20" patternUnits="userSpaceOnUse">
      <path d="M 20 0 L 0 0 0 20" fill="none" stroke="#e5e7eb" stroke-width="0.5" opacity="0.3"/>
    </pattern>
    <pattern id="dots" width="40" height="40" patternUnits="userSpaceOnUse">
      <circle cx="20" cy="20" r="1" fill="#6366f1" opacity="0.1"/>
    </pattern>
    <pattern id="hexagons" width="60" height="60" patternUnits="userSpaceOnUse">
      <polygon points="30,5 50,20 50,40 30,55 10,40 10,20" fill="none" stroke="#8b5cf6" stroke-width="0.5" opacity="0.1"/>
    </pattern>
  </defs>
  
  <!-- Grid pattern -->
  <rect width="100%" height="100%" fill="url(#grid)"/>
  
  <!-- Dots pattern -->
  <rect width="100%" height="100%" fill="url(#dots)"/>
  
  <!-- Hexagons pattern -->
  <rect width="100%" height="100%" fill="url(#hexagons)"/>
  
  <!-- Data visualization elements -->
  <g opacity="0.05">
    <circle cx="50" cy="50" r="3" fill="#6366f1"/>
    <circle cx="150" cy="80" r="2" fill="#8b5cf6"/>
    <circle cx="80" cy="150" r="2.5" fill="#ec4899"/>
    <circle cx="120" cy="120" r="1.5" fill="#6366f1"/>
    <circle cx="30" cy="180" r="2" fill="#8b5cf6"/>
  </g>
  
  <!-- Connection lines -->
  <g opacity="0.03" stroke="#6366f1" stroke-width="1" fill="none">
    <line x1="50" y1="50" x2="150" y2="80"/>
    <line x1="80" y1="150" x2="120" y2="120"/>
    <line x1="30" y1="180" x2="50" y2="50"/>
  </g>
</svg>
